G04 Layer: BottomSilkscreenLayer*
G04 EasyEDA v6.5.5, 2022-05-25 14:08:27*
G04 bdaad3862ddb4c9e9b702b0e38ea9031,060f7e9f23714b1eab8022e2d1795e97,10*
G04 Gerber Generator version 0.2*
G04 Scale: 100 percent, Rotated: No, Reflected: No *
G04 Dimensions in millimeters *
G04 leading zeros omitted , absolute positions ,4 integer and 5 decimal *
%FSLAX45Y45*%
%MOMM*%

%ADD10C,0.0001*%

%LPD*%
G36*
X2265273Y881989D02*
G01*
X2256383Y880973D01*
X2249068Y878382D01*
X2243175Y874826D01*
X2238603Y870813D01*
X2244445Y863955D01*
X2248204Y867359D01*
X2252776Y870203D01*
X2258263Y872134D01*
X2264765Y872845D01*
X2271725Y872185D01*
X2277973Y870153D01*
X2283409Y866902D01*
X2287981Y862482D01*
X2291638Y856945D01*
X2294280Y850341D01*
X2295956Y842771D01*
X2296515Y834237D01*
X2296007Y825652D01*
X2294432Y817930D01*
X2291842Y811276D01*
X2288235Y805637D01*
X2283764Y801116D01*
X2278278Y797864D01*
X2271979Y795832D01*
X2264765Y795121D01*
X2259685Y795528D01*
X2254859Y796696D01*
X2250643Y798525D01*
X2247239Y800963D01*
X2247239Y826363D01*
X2267559Y826363D01*
X2267559Y834999D01*
X2237333Y834999D01*
X2237333Y796645D01*
X2242616Y792276D01*
X2249271Y788822D01*
X2257044Y786536D01*
X2265781Y785723D01*
X2271725Y786079D01*
X2277313Y787196D01*
X2282545Y789025D01*
X2287371Y791514D01*
X2291740Y794715D01*
X2295601Y798525D01*
X2299004Y802995D01*
X2301849Y808024D01*
X2304135Y813714D01*
X2305812Y819912D01*
X2306828Y826668D01*
X2307183Y833983D01*
X2306828Y841248D01*
X2305761Y847953D01*
X2304084Y854151D01*
X2301748Y859739D01*
X2298852Y864768D01*
X2295398Y869238D01*
X2291384Y873048D01*
X2286965Y876198D01*
X2282088Y878687D01*
X2276856Y880516D01*
X2271217Y881634D01*
G37*
G36*
X2149703Y880465D02*
G01*
X2149703Y787501D01*
X2160625Y787501D01*
X2195423Y847699D01*
X2205583Y866749D01*
X2206345Y866749D01*
X2205177Y845769D01*
X2205075Y787501D01*
X2214981Y787501D01*
X2214981Y880465D01*
X2204059Y880465D01*
X2169007Y820267D01*
X2158847Y801217D01*
X2158339Y801217D01*
X2159152Y815594D01*
X2159609Y830173D01*
X2159609Y880465D01*
G37*
G36*
X2100935Y880465D02*
G01*
X2094026Y880110D01*
X2087727Y879094D01*
X2082038Y877366D01*
X2076907Y874979D01*
X2072386Y871931D01*
X2068474Y868324D01*
X2065121Y864057D01*
X2062378Y859180D01*
X2060244Y853795D01*
X2058720Y847801D01*
X2057806Y841298D01*
X2057501Y834237D01*
X2068169Y834237D01*
X2068372Y839978D01*
X2069084Y845312D01*
X2070252Y850188D01*
X2071827Y854608D01*
X2073910Y858519D01*
X2076450Y861974D01*
X2079447Y864920D01*
X2082952Y867410D01*
X2086914Y869289D01*
X2091385Y870712D01*
X2096312Y871524D01*
X2101697Y871829D01*
X2113127Y871829D01*
X2113127Y796137D01*
X2101697Y796137D01*
X2096312Y796442D01*
X2091385Y797306D01*
X2086914Y798779D01*
X2082952Y800760D01*
X2079447Y803300D01*
X2076450Y806348D01*
X2073910Y809853D01*
X2071827Y813866D01*
X2070252Y818337D01*
X2069084Y823214D01*
X2068372Y828548D01*
X2068169Y834237D01*
X2057501Y834237D01*
X2057806Y827227D01*
X2058720Y820724D01*
X2060244Y814730D01*
X2062378Y809244D01*
X2065070Y804316D01*
X2068372Y799998D01*
X2072284Y796290D01*
X2076754Y793191D01*
X2081834Y790752D01*
X2087473Y788974D01*
X2093671Y787857D01*
X2100427Y787501D01*
X2123795Y787501D01*
X2123795Y880465D01*
G37*
G36*
X1381353Y881989D02*
G01*
X1377188Y881684D01*
X1373276Y880668D01*
X1369669Y879043D01*
X1366367Y876757D01*
X1363421Y873810D01*
X1360779Y870203D01*
X1358493Y865936D01*
X1356614Y860958D01*
X1355140Y855319D01*
X1354074Y848969D01*
X1353362Y841959D01*
X1353159Y834237D01*
X1363065Y834237D01*
X1363421Y843737D01*
X1364386Y851865D01*
X1365961Y858621D01*
X1368094Y864108D01*
X1370787Y868324D01*
X1373886Y871270D01*
X1377442Y873048D01*
X1381353Y873607D01*
X1385265Y873048D01*
X1388872Y871270D01*
X1392021Y868324D01*
X1394714Y864108D01*
X1396898Y858621D01*
X1398524Y851865D01*
X1399540Y843737D01*
X1399895Y834237D01*
X1399540Y824636D01*
X1398524Y816406D01*
X1396898Y809498D01*
X1394714Y803910D01*
X1392021Y799592D01*
X1388872Y796493D01*
X1385265Y794715D01*
X1381353Y794105D01*
X1377442Y794715D01*
X1373886Y796493D01*
X1370787Y799592D01*
X1368094Y803910D01*
X1365961Y809498D01*
X1364386Y816406D01*
X1363421Y824636D01*
X1363065Y834237D01*
X1353159Y834237D01*
X1353362Y826516D01*
X1354074Y819454D01*
X1355140Y813053D01*
X1356614Y807313D01*
X1358493Y802284D01*
X1360779Y797864D01*
X1363421Y794156D01*
X1366367Y791108D01*
X1369669Y788771D01*
X1373276Y787095D01*
X1377188Y786079D01*
X1381353Y785723D01*
X1385570Y786079D01*
X1389532Y787095D01*
X1393190Y788771D01*
X1396542Y791108D01*
X1399489Y794156D01*
X1402130Y797864D01*
X1404416Y802284D01*
X1406296Y807313D01*
X1407820Y813053D01*
X1408887Y819454D01*
X1409598Y826516D01*
X1409801Y834237D01*
X1409598Y841959D01*
X1408887Y848969D01*
X1407820Y855319D01*
X1406296Y860958D01*
X1404416Y865936D01*
X1402130Y870203D01*
X1399489Y873810D01*
X1396542Y876757D01*
X1393190Y879043D01*
X1389532Y880668D01*
X1385570Y881684D01*
G37*
G36*
X1526641Y880465D02*
G01*
X1519174Y880110D01*
X1512468Y879094D01*
X1506575Y877214D01*
X1501546Y874521D01*
X1497533Y870864D01*
X1494586Y866190D01*
X1492707Y860450D01*
X1492097Y853541D01*
X1502765Y853541D01*
X1503172Y858316D01*
X1504340Y862279D01*
X1506321Y865479D01*
X1509064Y867918D01*
X1512671Y869746D01*
X1517040Y870915D01*
X1522171Y871626D01*
X1528165Y871829D01*
X1541881Y871829D01*
X1541881Y833729D01*
X1527657Y833729D01*
X1521714Y833983D01*
X1516583Y834847D01*
X1512316Y836320D01*
X1508810Y838403D01*
X1506169Y841146D01*
X1504238Y844550D01*
X1503121Y848664D01*
X1502765Y853541D01*
X1492097Y853541D01*
X1492707Y846785D01*
X1494536Y840943D01*
X1497431Y836066D01*
X1501394Y832103D01*
X1506321Y829005D01*
X1512112Y826820D01*
X1518767Y825500D01*
X1526133Y825093D01*
X1541881Y825093D01*
X1541881Y787501D01*
X1552549Y787501D01*
X1552549Y880465D01*
G37*
G36*
X1443583Y880465D02*
G01*
X1443583Y796137D01*
X1424533Y796137D01*
X1424533Y787501D01*
X1474571Y787501D01*
X1474571Y796137D01*
X1453997Y796137D01*
X1453997Y867257D01*
X1470253Y867257D01*
X1470253Y874115D01*
X1464564Y875334D01*
X1459636Y876808D01*
X1455267Y878484D01*
X1451457Y880465D01*
G37*
G36*
X534009Y977493D02*
G01*
X534009Y949553D01*
X534517Y935075D01*
X529437Y939596D01*
X524001Y943305D01*
X518058Y945845D01*
X511403Y946759D01*
X506425Y946353D01*
X502158Y945032D01*
X498551Y942949D01*
X495655Y940003D01*
X493420Y936244D01*
X491845Y931671D01*
X490880Y926287D01*
X490575Y920089D01*
X490575Y876401D01*
X500989Y876401D01*
X500989Y918565D01*
X501751Y927100D01*
X504190Y933043D01*
X508406Y936498D01*
X514451Y937615D01*
X519633Y936904D01*
X524306Y934770D01*
X528980Y931316D01*
X534009Y926439D01*
X534009Y876401D01*
X544423Y876401D01*
X544423Y977493D01*
G37*
G36*
X206857Y977493D02*
G01*
X206857Y893165D01*
X217271Y893165D01*
X217271Y930503D01*
X221742Y933958D01*
X226009Y936294D01*
X230327Y937666D01*
X234797Y938123D01*
X239014Y937615D01*
X242925Y936091D01*
X246430Y933653D01*
X249478Y930402D01*
X251917Y926388D01*
X253796Y921715D01*
X254965Y916482D01*
X255371Y910691D01*
X255066Y904646D01*
X254050Y899261D01*
X252475Y894638D01*
X250240Y890727D01*
X247446Y887628D01*
X244144Y885342D01*
X240233Y883970D01*
X235813Y883513D01*
X230987Y884123D01*
X226364Y885952D01*
X221792Y889000D01*
X217271Y893165D01*
X206857Y893165D01*
X206857Y876401D01*
X215493Y876401D01*
X216255Y884529D01*
X216763Y884529D01*
X221132Y880719D01*
X226161Y877569D01*
X231749Y875436D01*
X237845Y874623D01*
X244043Y875233D01*
X249580Y877062D01*
X254457Y880008D01*
X258571Y884072D01*
X261823Y889253D01*
X264261Y895400D01*
X265785Y902563D01*
X266293Y910691D01*
X265633Y918565D01*
X263804Y925626D01*
X260959Y931824D01*
X257200Y937006D01*
X252729Y941171D01*
X247650Y944219D01*
X242112Y946099D01*
X236321Y946759D01*
X230682Y946200D01*
X225755Y944575D01*
X221234Y942035D01*
X216763Y938631D01*
X217271Y950569D01*
X217271Y977493D01*
G37*
G36*
X682599Y973937D02*
G01*
X679754Y973429D01*
X677519Y972007D01*
X676046Y969873D01*
X675487Y967079D01*
X676046Y963980D01*
X677519Y961694D01*
X679754Y960221D01*
X682599Y959713D01*
X685546Y960221D01*
X687781Y961694D01*
X689203Y963980D01*
X689711Y967079D01*
X689203Y969873D01*
X687781Y972058D01*
X685546Y973429D01*
G37*
G36*
X1007465Y970889D02*
G01*
X999540Y970076D01*
X992276Y967790D01*
X985875Y964234D01*
X980541Y959713D01*
X986129Y952855D01*
X990549Y956513D01*
X995578Y959307D01*
X1001166Y961085D01*
X1007465Y961745D01*
X1014882Y960729D01*
X1020571Y957884D01*
X1024229Y953363D01*
X1025499Y947521D01*
X1024077Y941425D01*
X1020470Y937006D01*
X1015542Y933754D01*
X1010259Y931265D01*
X996797Y925677D01*
X989177Y921816D01*
X983030Y916736D01*
X978966Y909929D01*
X977493Y900785D01*
X978052Y895502D01*
X979678Y890574D01*
X982268Y886155D01*
X985824Y882294D01*
X990295Y879094D01*
X995578Y876655D01*
X1001674Y875131D01*
X1008481Y874623D01*
X1018082Y875588D01*
X1026718Y878382D01*
X1034389Y882751D01*
X1040993Y888593D01*
X1034643Y895705D01*
X1029055Y890879D01*
X1022705Y887171D01*
X1015796Y884834D01*
X1008481Y884021D01*
X999896Y885190D01*
X993444Y888390D01*
X989330Y893470D01*
X987907Y900023D01*
X989177Y906322D01*
X992581Y910844D01*
X997661Y914298D01*
X1003909Y917295D01*
X1017371Y923137D01*
X1023975Y926541D01*
X1030020Y931316D01*
X1034440Y937920D01*
X1036167Y946759D01*
X1035608Y951788D01*
X1033983Y956411D01*
X1031443Y960526D01*
X1027988Y964082D01*
X1023823Y966927D01*
X1018895Y969060D01*
X1013460Y970432D01*
G37*
G36*
X836015Y970889D02*
G01*
X827989Y970076D01*
X820724Y967790D01*
X814425Y964234D01*
X809091Y959713D01*
X814679Y952855D01*
X819099Y956513D01*
X824128Y959307D01*
X829716Y961085D01*
X836015Y961745D01*
X843432Y960729D01*
X849121Y957884D01*
X852779Y953363D01*
X854049Y947521D01*
X852627Y941425D01*
X848969Y937006D01*
X843991Y933754D01*
X838555Y931265D01*
X825093Y925677D01*
X817575Y921816D01*
X811428Y916736D01*
X807313Y909929D01*
X805789Y900785D01*
X806348Y895502D01*
X807974Y890574D01*
X810666Y886155D01*
X814273Y882294D01*
X818794Y879094D01*
X824128Y876655D01*
X830224Y875131D01*
X837031Y874623D01*
X846531Y875588D01*
X855167Y878382D01*
X862787Y882751D01*
X869289Y888593D01*
X862939Y895705D01*
X857503Y890879D01*
X851204Y887171D01*
X844346Y884834D01*
X837031Y884021D01*
X828446Y885190D01*
X821994Y888390D01*
X817880Y893470D01*
X816457Y900023D01*
X817727Y906322D01*
X821131Y910844D01*
X826211Y914298D01*
X832459Y917295D01*
X845921Y923137D01*
X852525Y926541D01*
X858570Y931316D01*
X862990Y937920D01*
X864717Y946759D01*
X864158Y951788D01*
X862533Y956411D01*
X859993Y960526D01*
X856538Y964082D01*
X852373Y966927D01*
X847445Y969060D01*
X842010Y970432D01*
G37*
G36*
X1097889Y969365D02*
G01*
X1091082Y969010D01*
X1084783Y967994D01*
X1079093Y966266D01*
X1073962Y963879D01*
X1069441Y960831D01*
X1065530Y957224D01*
X1062126Y952957D01*
X1059383Y948080D01*
X1057249Y942695D01*
X1055674Y936701D01*
X1054760Y930198D01*
X1054455Y923137D01*
X1065123Y923137D01*
X1065377Y928878D01*
X1066038Y934212D01*
X1067206Y939088D01*
X1068832Y943508D01*
X1070965Y947419D01*
X1073505Y950874D01*
X1076553Y953820D01*
X1080008Y956310D01*
X1083970Y958189D01*
X1088390Y959612D01*
X1093317Y960424D01*
X1098651Y960729D01*
X1110081Y960729D01*
X1110081Y885037D01*
X1098651Y885037D01*
X1093317Y885342D01*
X1088390Y886206D01*
X1083970Y887679D01*
X1080008Y889660D01*
X1076553Y892200D01*
X1073505Y895248D01*
X1070965Y898753D01*
X1068832Y902766D01*
X1067206Y907237D01*
X1066038Y912114D01*
X1065377Y917448D01*
X1065123Y923137D01*
X1054455Y923137D01*
X1054760Y916127D01*
X1055674Y909624D01*
X1057249Y903630D01*
X1059383Y898144D01*
X1062126Y893216D01*
X1065428Y888898D01*
X1069340Y885190D01*
X1073810Y882091D01*
X1078890Y879652D01*
X1084478Y877874D01*
X1090676Y876757D01*
X1097381Y876401D01*
X1120749Y876401D01*
X1120749Y969365D01*
G37*
G36*
X948283Y969365D02*
G01*
X948283Y885291D01*
X907135Y885291D01*
X907135Y876401D01*
X958697Y876401D01*
X958697Y969365D01*
G37*
G36*
X362559Y969365D02*
G01*
X362559Y876401D01*
X372211Y876401D01*
X372211Y929995D01*
X371754Y943610D01*
X370941Y957173D01*
X371449Y957173D01*
X378815Y935837D01*
X397103Y886053D01*
X404215Y886053D01*
X422503Y935837D01*
X429869Y957173D01*
X430377Y957173D01*
X429564Y943610D01*
X429107Y929995D01*
X429107Y876401D01*
X438759Y876401D01*
X438759Y969365D01*
X425805Y969365D01*
X405790Y913637D01*
X400659Y898753D01*
X400151Y898753D01*
X395224Y913637D01*
X375513Y969365D01*
G37*
G36*
X641451Y964539D02*
G01*
X641451Y944981D01*
X622401Y944981D01*
X622401Y936345D01*
X641451Y936345D01*
X641451Y896721D01*
X640943Y891082D01*
X639114Y886866D01*
X635762Y884174D01*
X630529Y883259D01*
X626516Y883767D01*
X622655Y885037D01*
X620623Y877163D01*
X629818Y874877D01*
X632815Y874623D01*
X641756Y876249D01*
X647547Y880871D01*
X650697Y888034D01*
X651611Y897229D01*
X651611Y936345D01*
X662025Y936345D01*
X662025Y944473D01*
X651357Y944981D01*
X650087Y964539D01*
G37*
G36*
X581253Y946759D02*
G01*
X575056Y946099D01*
X569722Y944321D01*
X565099Y941730D01*
X561187Y938631D01*
X566775Y931773D01*
X569874Y934262D01*
X573227Y936294D01*
X576884Y937615D01*
X580999Y938123D01*
X585622Y937615D01*
X589838Y936142D01*
X593648Y933754D01*
X596950Y930503D01*
X599643Y926490D01*
X601624Y921816D01*
X602894Y916533D01*
X603351Y910691D01*
X602945Y904798D01*
X601776Y899464D01*
X599846Y894842D01*
X597255Y890930D01*
X594055Y887780D01*
X590296Y885444D01*
X585978Y884021D01*
X581253Y883513D01*
X576478Y884072D01*
X572008Y885494D01*
X567994Y887679D01*
X564489Y890371D01*
X559917Y883513D01*
X564743Y879856D01*
X570128Y877062D01*
X575868Y875284D01*
X582015Y874623D01*
X588568Y875233D01*
X594614Y877062D01*
X600049Y880008D01*
X604774Y884072D01*
X608634Y889253D01*
X611530Y895400D01*
X613359Y902563D01*
X614019Y910691D01*
X613308Y918819D01*
X611378Y925982D01*
X608279Y932129D01*
X604215Y937310D01*
X599338Y941374D01*
X593750Y944321D01*
X587705Y946150D01*
G37*
G36*
X311251Y946759D02*
G01*
X305104Y946150D01*
X299262Y944321D01*
X293928Y941374D01*
X289204Y937310D01*
X285292Y932129D01*
X282295Y925982D01*
X280416Y918819D01*
X279755Y910691D01*
X290423Y910691D01*
X290830Y916533D01*
X291947Y921816D01*
X293776Y926490D01*
X296265Y930503D01*
X299313Y933754D01*
X302869Y936142D01*
X306832Y937615D01*
X311251Y938123D01*
X315722Y937615D01*
X319735Y936142D01*
X323291Y933754D01*
X326339Y930503D01*
X328777Y926490D01*
X330555Y921816D01*
X331673Y916533D01*
X332079Y910691D01*
X331673Y904798D01*
X330555Y899464D01*
X328777Y894842D01*
X326339Y890930D01*
X323291Y887780D01*
X319735Y885444D01*
X315722Y884021D01*
X311251Y883513D01*
X306832Y884021D01*
X302869Y885444D01*
X299313Y887780D01*
X296265Y890930D01*
X293776Y894842D01*
X291947Y899464D01*
X290830Y904798D01*
X290423Y910691D01*
X279755Y910691D01*
X280416Y902563D01*
X282295Y895400D01*
X285292Y889253D01*
X289204Y884072D01*
X293928Y880008D01*
X299262Y877062D01*
X305104Y875233D01*
X311251Y874623D01*
X317398Y875233D01*
X323240Y877062D01*
X328574Y880008D01*
X333298Y884072D01*
X337210Y889253D01*
X340207Y895400D01*
X342087Y902563D01*
X342747Y910691D01*
X342087Y918819D01*
X340207Y925982D01*
X337210Y932129D01*
X333298Y937310D01*
X328574Y941374D01*
X323240Y944321D01*
X317398Y946150D01*
G37*
G36*
X703173Y944981D02*
G01*
X721969Y876401D01*
X734415Y876401D01*
X746201Y919530D01*
X749655Y934313D01*
X750417Y934313D01*
X752652Y924306D01*
X765403Y876401D01*
X777595Y876401D01*
X796899Y944981D01*
X786231Y944981D01*
X774446Y899363D01*
X771245Y885291D01*
X770737Y885291D01*
X765911Y904087D01*
X754989Y944981D01*
X744575Y944981D01*
X732129Y899363D01*
X728573Y885291D01*
X728065Y885291D01*
X723493Y904087D01*
X713079Y944981D01*
G37*
G36*
X677519Y944981D02*
G01*
X677519Y876401D01*
X687679Y876401D01*
X687679Y944981D01*
G37*
G36*
X597255Y801471D02*
G01*
X594258Y801268D01*
X591362Y800760D01*
X586079Y798931D01*
X588365Y791057D01*
X592480Y792530D01*
X596239Y793089D01*
X600659Y792175D01*
X603758Y789482D01*
X605586Y785063D01*
X606145Y778865D01*
X606145Y767181D01*
X591413Y767181D01*
X591413Y758545D01*
X606145Y758545D01*
X606145Y698601D01*
X616559Y698601D01*
X616559Y758545D01*
X625957Y758545D01*
X625957Y766673D01*
X616559Y767181D01*
X616559Y779119D01*
X615340Y788517D01*
X611784Y795528D01*
X605739Y799947D01*
G37*
G36*
X1111351Y799693D02*
G01*
X1111351Y771753D01*
X1111859Y759053D01*
X1106830Y762863D01*
X1101394Y766013D01*
X1095654Y768146D01*
X1089761Y768959D01*
X1083462Y768299D01*
X1077976Y766470D01*
X1073251Y763422D01*
X1069390Y759358D01*
X1066342Y754278D01*
X1064107Y748284D01*
X1062786Y741476D01*
X1062329Y733907D01*
X1072997Y733907D01*
X1073251Y739495D01*
X1074064Y744575D01*
X1075385Y749096D01*
X1077366Y752906D01*
X1080008Y756056D01*
X1083310Y758393D01*
X1087272Y759815D01*
X1092047Y760323D01*
X1096670Y759663D01*
X1101394Y757732D01*
X1106322Y754532D01*
X1111351Y750163D01*
X1111351Y713079D01*
X1106576Y709676D01*
X1101902Y707390D01*
X1097584Y706120D01*
X1093825Y705713D01*
X1089507Y706221D01*
X1085545Y707644D01*
X1081989Y710031D01*
X1078941Y713232D01*
X1076452Y717296D01*
X1074572Y722122D01*
X1073404Y727659D01*
X1072997Y733907D01*
X1062329Y733907D01*
X1062939Y725627D01*
X1064768Y718261D01*
X1067612Y711911D01*
X1071321Y706628D01*
X1075791Y702411D01*
X1080871Y699312D01*
X1086408Y697433D01*
X1092301Y696823D01*
X1097229Y697484D01*
X1102309Y699262D01*
X1107338Y702056D01*
X1112113Y705713D01*
X1112367Y705713D01*
X1113383Y698601D01*
X1121765Y698601D01*
X1121765Y799693D01*
G37*
G36*
X916787Y799693D02*
G01*
X916787Y710539D01*
X916584Y708304D01*
X915924Y706780D01*
X914958Y705967D01*
X913739Y705713D01*
X911199Y705713D01*
X909675Y697839D01*
X912368Y697128D01*
X916025Y696823D01*
X921105Y697788D01*
X924560Y700582D01*
X926541Y705053D01*
X927201Y711047D01*
X927201Y799693D01*
G37*
G36*
X792581Y799185D02*
G01*
X831951Y675995D01*
X839571Y675995D01*
X800201Y799185D01*
G37*
G36*
X1038453Y796137D02*
G01*
X1035608Y795629D01*
X1033373Y794207D01*
X1031900Y792073D01*
X1031341Y789279D01*
X1031900Y786180D01*
X1033373Y783894D01*
X1035608Y782421D01*
X1038453Y781913D01*
X1041400Y782421D01*
X1043635Y783894D01*
X1045057Y786180D01*
X1045565Y789279D01*
X1045057Y792073D01*
X1043635Y794258D01*
X1041400Y795629D01*
G37*
G36*
X758291Y793089D02*
G01*
X752805Y792683D01*
X747725Y791565D01*
X743254Y789686D01*
X739343Y787095D01*
X736193Y783844D01*
X733856Y779932D01*
X732383Y775360D01*
X731875Y770229D01*
X733044Y762254D01*
X736396Y755904D01*
X741629Y751027D01*
X748385Y747623D01*
X748385Y747115D01*
X740664Y744118D01*
X734364Y739089D01*
X730148Y732078D01*
X728573Y723239D01*
X729183Y717346D01*
X730859Y712165D01*
X733552Y707644D01*
X737108Y703834D01*
X741375Y700836D01*
X746353Y698652D01*
X751840Y697280D01*
X757783Y696823D01*
X767689Y697890D01*
X775766Y700786D01*
X782218Y704850D01*
X787247Y709523D01*
X781913Y716381D01*
X777544Y712368D01*
X772312Y708964D01*
X766064Y706577D01*
X758545Y705713D01*
X750671Y706983D01*
X744474Y710539D01*
X740460Y716229D01*
X738987Y723747D01*
X739343Y727862D01*
X740562Y731570D01*
X742594Y734822D01*
X745642Y737565D01*
X749655Y739800D01*
X754735Y741426D01*
X760984Y742442D01*
X768451Y742797D01*
X768451Y751179D01*
X761796Y751535D01*
X756208Y752551D01*
X751687Y754227D01*
X748131Y756412D01*
X745490Y759104D01*
X743661Y762203D01*
X742645Y765708D01*
X742289Y769467D01*
X743458Y775716D01*
X746709Y780542D01*
X751840Y783590D01*
X758545Y784707D01*
X764082Y784047D01*
X769264Y782116D01*
X773988Y779221D01*
X778103Y775563D01*
X783945Y782421D01*
X778560Y786638D01*
X772566Y790041D01*
X765860Y792276D01*
G37*
G36*
X555091Y793089D02*
G01*
X550875Y792784D01*
X546912Y791768D01*
X543255Y790143D01*
X539902Y787857D01*
X536956Y784910D01*
X534314Y781304D01*
X532028Y777036D01*
X530148Y772058D01*
X528624Y766419D01*
X527558Y760069D01*
X526846Y753059D01*
X526643Y745337D01*
X536549Y745337D01*
X536905Y754837D01*
X537870Y762965D01*
X539445Y769721D01*
X541629Y775208D01*
X544322Y779424D01*
X547471Y782370D01*
X551078Y784148D01*
X555091Y784707D01*
X559003Y784148D01*
X562559Y782370D01*
X565658Y779424D01*
X568350Y775208D01*
X570484Y769721D01*
X572058Y762965D01*
X573024Y754837D01*
X573379Y745337D01*
X573024Y735736D01*
X572058Y727506D01*
X570484Y720598D01*
X568350Y715010D01*
X565658Y710692D01*
X562559Y707593D01*
X559003Y705815D01*
X555091Y705205D01*
X551078Y705815D01*
X547471Y707593D01*
X544322Y710692D01*
X541629Y715010D01*
X539445Y720598D01*
X537870Y727506D01*
X536905Y735736D01*
X536549Y745337D01*
X526643Y745337D01*
X526846Y737616D01*
X527558Y730554D01*
X528624Y724154D01*
X530148Y718413D01*
X532028Y713384D01*
X534314Y708964D01*
X536956Y705256D01*
X539902Y702208D01*
X543255Y699871D01*
X546912Y698195D01*
X550875Y697179D01*
X555091Y696823D01*
X559257Y697179D01*
X563219Y698195D01*
X566826Y699871D01*
X570128Y702208D01*
X573125Y705256D01*
X575767Y708964D01*
X578104Y713384D01*
X579983Y718413D01*
X581507Y724154D01*
X582625Y730554D01*
X583285Y737616D01*
X583539Y745337D01*
X583285Y753059D01*
X582625Y760069D01*
X581507Y766419D01*
X579983Y772058D01*
X578104Y777036D01*
X575767Y781304D01*
X573125Y784910D01*
X570128Y787857D01*
X566826Y790143D01*
X563219Y791768D01*
X559257Y792784D01*
G37*
G36*
X643229Y791565D02*
G01*
X643229Y698601D01*
X654151Y698601D01*
X688949Y758799D01*
X699109Y777849D01*
X699871Y777849D01*
X699058Y763930D01*
X698601Y749655D01*
X698601Y698601D01*
X708507Y698601D01*
X708507Y791565D01*
X697585Y791565D01*
X662533Y731367D01*
X652373Y712317D01*
X651865Y712317D01*
X652678Y726694D01*
X653135Y741273D01*
X653135Y791565D01*
G37*
G36*
X431139Y791565D02*
G01*
X431139Y698601D01*
X440791Y698601D01*
X440791Y752195D01*
X440334Y765810D01*
X439521Y779373D01*
X440029Y779373D01*
X447395Y758037D01*
X465683Y708253D01*
X472795Y708253D01*
X491083Y758037D01*
X498449Y779373D01*
X498957Y779373D01*
X498144Y765810D01*
X497687Y752195D01*
X497687Y698601D01*
X507339Y698601D01*
X507339Y791565D01*
X494131Y791565D01*
X469239Y720953D01*
X468731Y720953D01*
X463804Y735838D01*
X444093Y791565D01*
G37*
G36*
X310997Y791565D02*
G01*
X330555Y698601D01*
X343001Y698601D01*
X357733Y756513D01*
X362559Y777595D01*
X362813Y777595D01*
X382117Y698601D01*
X394563Y698601D01*
X414629Y791565D01*
X403707Y791565D01*
X392074Y732536D01*
X387959Y709777D01*
X387197Y709777D01*
X380593Y740003D01*
X367385Y791565D01*
X357479Y791565D01*
X344271Y740003D01*
X337413Y709777D01*
X336905Y709777D01*
X331317Y740003D01*
X321157Y791565D01*
G37*
G36*
X248767Y791565D02*
G01*
X248767Y782675D01*
X284327Y782675D01*
X286613Y754481D01*
X283514Y756208D01*
X280162Y757478D01*
X276504Y758291D01*
X272389Y758545D01*
X266750Y758088D01*
X261467Y756767D01*
X256743Y754481D01*
X252628Y751281D01*
X249224Y747115D01*
X246634Y741934D01*
X245008Y735787D01*
X244449Y728573D01*
X245110Y721461D01*
X246989Y715162D01*
X249936Y709726D01*
X253746Y705154D01*
X258216Y701598D01*
X263296Y698957D01*
X268782Y697382D01*
X274421Y696823D01*
X284226Y697890D01*
X292150Y700735D01*
X298551Y704748D01*
X303631Y709269D01*
X298551Y716127D01*
X294233Y712165D01*
X289052Y708812D01*
X282803Y706577D01*
X275183Y705713D01*
X267411Y707339D01*
X260908Y711911D01*
X256489Y719124D01*
X254863Y728573D01*
X256286Y737768D01*
X260299Y744626D01*
X266649Y748944D01*
X274929Y750417D01*
X279298Y750062D01*
X283159Y748944D01*
X286867Y747217D01*
X290677Y744829D01*
X296265Y748385D01*
X293217Y791565D01*
G37*
G36*
X997305Y786739D02*
G01*
X997305Y767181D01*
X978509Y767181D01*
X978509Y758545D01*
X997305Y758545D01*
X997305Y718921D01*
X996797Y713282D01*
X994968Y709066D01*
X991616Y706374D01*
X986383Y705459D01*
X982421Y705967D01*
X978509Y707237D01*
X976477Y699363D01*
X985672Y697077D01*
X988669Y696823D01*
X997712Y698449D01*
X1003503Y703072D01*
X1006551Y710234D01*
X1007465Y719429D01*
X1007465Y758545D01*
X1018133Y758545D01*
X1018133Y766673D01*
X1007211Y767181D01*
X1005941Y786739D01*
G37*
G36*
X1033373Y767181D02*
G01*
X1033373Y698601D01*
X1043533Y698601D01*
X1043533Y767181D01*
G37*
G36*
X840333Y767181D02*
G01*
X866495Y692251D01*
X868324Y687527D01*
X870458Y683107D01*
X872896Y679094D01*
X875741Y675589D01*
X878992Y672693D01*
X882700Y670509D01*
X886866Y669137D01*
X891641Y668629D01*
X895858Y668985D01*
X899515Y670153D01*
X897229Y678281D01*
X894842Y677570D01*
X891895Y677265D01*
X886510Y678484D01*
X882091Y681786D01*
X878586Y686816D01*
X875893Y693013D01*
X874369Y698347D01*
X902055Y767181D01*
X891387Y767181D01*
X876655Y728065D01*
X869797Y708507D01*
X869289Y708507D01*
X863447Y728065D01*
X850493Y767181D01*
G37*
G36*
X956411Y713587D02*
G01*
X953363Y712978D01*
X950874Y711200D01*
X949147Y708558D01*
X948537Y705205D01*
X949147Y701852D01*
X950874Y699211D01*
X953363Y697433D01*
X956411Y696823D01*
X959358Y697433D01*
X961847Y699211D01*
X963625Y701852D01*
X964285Y705205D01*
X963625Y708558D01*
X961847Y711200D01*
X959358Y712978D01*
G37*
M02*
