G04 Layer: TopSilkscreenLayer*
G04 EasyEDA v6.5.5, 2022-05-25 14:08:27*
G04 bdaad3862ddb4c9e9b702b0e38ea9031,060f7e9f23714b1eab8022e2d1795e97,10*
G04 Gerber Generator version 0.2*
G04 Scale: 100 percent, Rotated: No, Reflected: No *
G04 Dimensions in millimeters *
G04 leading zeros omitted , absolute positions ,4 integer and 5 decimal *
%FSLAX45Y45*%
%MOMM*%

%ADD10C,0.2540*%

%LPD*%
G36*
X416051Y833374D02*
G01*
X411581Y828141D01*
X408127Y822045D01*
X405892Y815136D01*
X405130Y807466D01*
X405536Y802030D01*
X406755Y797153D01*
X408635Y792886D01*
X411175Y789330D01*
X414223Y786434D01*
X417779Y784301D01*
X421690Y783031D01*
X425958Y782574D01*
X433120Y783793D01*
X438505Y787095D01*
X442620Y792022D01*
X445770Y798068D01*
X452374Y813053D01*
X454914Y817067D01*
X458419Y820013D01*
X463296Y821182D01*
X468071Y820115D01*
X471678Y817168D01*
X473964Y812596D01*
X474726Y806704D01*
X474218Y801624D01*
X472795Y797102D01*
X470560Y793038D01*
X467614Y789432D01*
X472948Y785114D01*
X476605Y789381D01*
X479501Y794461D01*
X481431Y800303D01*
X482092Y806704D01*
X480669Y815848D01*
X476656Y823112D01*
X470509Y827836D01*
X462788Y829564D01*
X455625Y828192D01*
X450291Y824636D01*
X446481Y819810D01*
X443738Y814578D01*
X436626Y798677D01*
X433984Y794613D01*
X430326Y791921D01*
X425196Y790956D01*
X420014Y792124D01*
X416001Y795426D01*
X413410Y800608D01*
X412496Y807466D01*
X413156Y813308D01*
X414985Y818845D01*
X417982Y823874D01*
X421893Y828294D01*
G37*
G36*
X406400Y769112D02*
G01*
X406400Y728980D01*
X413258Y728980D01*
X413258Y744220D01*
X480822Y744220D01*
X480822Y750316D01*
X479196Y753465D01*
X477824Y756970D01*
X476656Y760984D01*
X475742Y765556D01*
X470408Y765556D01*
X470408Y752348D01*
X413258Y752348D01*
X413258Y769112D01*
G37*
D10*
X105486Y625500D02*
G01*
X83599Y625500D01*
X373600Y1025499D02*
G01*
X373600Y625500D01*
X83599Y1025499D02*
G01*
X83599Y625500D01*
X373600Y1025499D02*
G01*
X351713Y1025499D01*
X105486Y1025499D02*
G01*
X83599Y1025499D01*
X373600Y625500D02*
G01*
X351713Y625500D01*
G75*
G01
X313614Y825500D02*
G03X313614Y825500I-85014J0D01*
M02*
